<?xml version="1.0" standalone="no"?>
<!DOCTYPE svg PUBLIC "-//W3C//DTD SVG 20010904//EN"
 "http://www.w3.org/TR/2001/REC-SVG-20010904/DTD/svg10.dtd">
<svg version="1.0" xmlns="http://www.w3.org/2000/svg"
 width="794.000000pt" height="794.000000pt" viewBox="0 0 794.000000 794.000000"
 preserveAspectRatio="xMidYMid meet">
<metadata>
Created by potrace 1.14, written by Peter Selinger 2001-2017
</metadata>
<g transform="translate(0.000000,794.000000) scale(0.100000,-0.100000)"
fill="#000000" stroke="none">
<path d="M7347 6847 c8 -12 10 -22 18 -67 2 -14 5 -25 6 -25 2 0 7 -30 13 -85
4 -38 5 -117 4 -252 -1 -16 -4 -28 -8 -28 -4 0 -8 -15 -9 -32 -1 -63 -2 -68
-13 -68 -6 0 -9 -3 -5 -6 12 -12 -77 -214 -95 -214 -4 0 -8 -7 -8 -15 0 -8 -7
-15 -16 -15 -9 0 -12 -5 -8 -12 4 -6 3 -8 -3 -5 -12 8 -77 138 -75 150 1 4 -2
7 -8 7 -5 0 -10 8 -10 18 0 9 -7 26 -15 36 -8 10 -12 23 -9 27 3 5 0 9 -5 9
-6 0 -11 7 -11 15 0 8 -4 15 -8 15 -4 0 -9 11 -10 24 -1 14 -10 40 -20 58 -19
33 -37 87 -34 101 1 4 -3 7 -9 7 -6 0 -9 7 -5 15 3 8 2 15 -2 15 -4 0 -8 10
-9 22 -1 11 -6 24 -10 27 -4 3 -10 20 -12 36 -1 17 -6 35 -10 40 -4 6 -8 26
-10 45 -2 19 -8 38 -15 42 -7 5 -6 8 4 8 12 0 12 2 2 8 -7 5 -10 16 -7 24 4 9
2 19 -3 22 -10 6 -53 -39 -45 -48 4 -3 -1 -6 -10 -6 -9 0 -17 -7 -17 -15 0 -7
-8 -19 -17 -24 -10 -6 -15 -11 -11 -11 4 0 -4 -12 -17 -26 -14 -15 -22 -30
-19 -35 3 -5 -2 -9 -11 -9 -9 0 -13 -5 -10 -10 3 -6 -1 -13 -9 -16 -9 -3 -16
-11 -16 -16 0 -5 -9 -23 -21 -39 -11 -16 -17 -29 -14 -29 4 0 -1 -7 -9 -16 -9
-8 -16 -22 -16 -30 0 -8 -4 -12 -10 -9 -6 3 -7 -1 -4 -9 3 -9 1 -16 -5 -16 -6
0 -10 -3 -9 -7 1 -7 -7 -30 -29 -83 -8 -20 -14 -42 -15 -57 -1 -7 -5 -13 -9
-13 -4 0 -6 -8 -4 -17 1 -10 -1 -23 -6 -28 -9 -12 -9 -12 -10 -135 -1 -110 2
-140 11 -140 5 0 7 -7 6 -17 -2 -9 5 -32 15 -52 9 -20 15 -39 12 -43 -2 -5 1
-8 6 -8 6 0 11 -6 11 -12 0 -7 20 -40 45 -73 25 -33 45 -63 45 -67 0 -5 7 -8
15 -8 8 0 15 -4 15 -10 0 -5 11 -20 25 -34 14 -14 25 -23 25 -20 0 2 14 -9 31
-26 18 -16 38 -30 45 -30 8 0 14 -4 14 -9 0 -5 14 -14 31 -21 17 -7 37 -20 45
-27 8 -8 21 -16 28 -17 8 -1 22 -8 32 -16 16 -13 17 -13 10 0 -5 8 1 6 12 -5
17 -16 22 -35 25 -102 2 -46 0 -83 -5 -83 -5 0 -6 -4 -3 -10 3 -5 0 -10 -7
-10 -11 0 -11 -2 0 -9 11 -7 11 -11 0 -22 -7 -8 -14 -21 -16 -29 -2 -8 -12
-31 -22 -52 -10 -20 -16 -39 -12 -44 4 -4 1 -4 -6 0 -7 4 -10 12 -7 17 4 5 -1
12 -9 15 -9 3 -13 10 -10 15 3 5 -2 9 -10 9 -9 0 -15 3 -15 8 3 18 -2 35 -8
28 -4 -4 -17 10 -30 31 -13 21 -23 34 -23 29 0 -6 -20 12 -45 38 -25 27 -45
46 -45 43 0 -3 -16 11 -36 31 -20 20 -39 37 -42 37 -4 0 -6 3 -5 8 2 4 0 7 -3
7 -10 0 -77 -42 -98 -62 -11 -10 -28 -18 -37 -18 -10 0 -20 -4 -23 -9 -12 -19
-58 -7 -91 23 -26 24 -32 35 -23 44 8 8 8 15 -2 27 -7 8 -8 15 -3 15 10 0 9
82 -1 99 -4 6 -1 11 6 11 8 0 9 3 3 8 -12 9 -14 122 -1 122 4 0 3 6 -3 14 -6
7 -12 24 -13 38 -2 22 -28 60 -28 41 0 -4 -4 -2 -9 5 -11 19 -81 28 -81 11 0
-7 -3 -10 -6 -7 -7 8 -126 -50 -136 -66 -4 -6 -8 -8 -8 -4 0 4 -28 -7 -62 -24
-35 -18 -65 -33 -68 -33 -3 0 -10 -4 -16 -8 -7 -4 -17 0 -24 8 -6 7 -17 12
-24 9 -14 -5 -32 31 -40 76 -3 14 -5 25 -6 25 -1 0 -3 11 -5 25 -2 14 -9 48
-15 75 -6 28 -14 61 -16 75 -14 76 -34 117 -64 131 -32 15 -92 21 -85 9 4 -6
-1 -10 -9 -10 -9 0 -16 -4 -16 -10 0 -5 -5 -10 -10 -10 -6 0 -22 -10 -35 -22
-22 -22 -33 -31 -99 -81 -16 -12 -40 -32 -52 -44 -13 -13 -28 -23 -34 -23 -5
0 -10 -5 -10 -11 0 -6 -5 -7 -12 -2 -7 4 -22 9 -33 10 -10 2 -22 8 -26 14 -3
6 -9 10 -13 10 -3 -1 -6 1 -6 4 0 3 -6 18 -14 34 -9 16 -12 31 -9 35 4 3 1 6
-5 6 -7 0 -11 3 -11 8 3 13 -23 72 -32 72 -4 0 -6 7 -3 15 4 8 2 15 -3 15 -5
0 -9 10 -10 22 -1 11 -8 25 -15 29 -7 5 -9 9 -4 9 5 0 3 6 -3 13 -6 8 -8 17
-4 20 3 4 1 7 -6 7 -7 0 -9 5 -6 10 3 6 -1 13 -9 16 -9 3 -13 11 -9 17 3 5 1
7 -4 4 -6 -4 -16 0 -23 8 -8 9 -23 13 -43 9 -18 -2 -38 -5 -44 -6 -7 -1 -13
-8 -13 -15 0 -8 -4 -11 -10 -8 -5 3 -10 2 -10 -4 0 -6 -11 -21 -24 -34 -12
-13 -26 -30 -29 -38 -3 -8 -6 -9 -6 -2 -2 20 -39 2 -45 -23 -4 -13 -11 -24
-17 -24 -6 0 -7 -5 -4 -10 3 -6 -1 -13 -9 -16 -9 -3 -13 -10 -10 -15 3 -5 0
-9 -5 -9 -6 0 -10 -4 -9 -9 2 -5 -12 -23 -29 -40 -29 -27 -36 -30 -60 -20 -16
6 -30 9 -33 7 -2 -2 -14 14 -25 35 -12 20 -25 34 -30 30 -4 -5 -5 0 -2 10 4
11 1 17 -9 17 -8 0 -13 4 -9 9 3 5 -2 16 -10 24 -8 9 -15 20 -15 26 0 6 -4 11
-9 11 -5 0 -16 15 -24 33 -23 48 -68 98 -101 112 -40 17 -94 0 -110 -35 -6
-14 -16 -31 -23 -38 -7 -8 -11 -18 -8 -23 4 -5 1 -9 -4 -9 -6 0 -11 -5 -11
-10 0 -6 -11 -28 -25 -50 -14 -22 -25 -46 -25 -55 0 -8 -4 -15 -9 -15 -5 0
-15 -15 -22 -32 -19 -47 -35 -60 -78 -64 -30 -3 -42 1 -59 20 -11 14 -18 27
-15 30 4 3 1 6 -7 6 -15 0 -120 107 -112 115 3 3 -2 5 -11 5 -8 0 -19 9 -22
20 -3 11 -12 20 -18 20 -7 0 -18 9 -25 21 -8 12 -19 18 -28 15 -8 -3 -14 -1
-14 4 0 10 -33 5 -71 -11 -23 -9 -37 -34 -54 -99 -1 -3 -8 -25 -15 -50 -8 -25
-14 -49 -15 -55 0 -5 -3 -13 -7 -16 -5 -3 -9 -17 -10 -32 -1 -15 -6 -27 -11
-27 -4 0 -6 -4 -3 -9 4 -5 0 -12 -6 -14 -9 -4 -9 -6 -1 -6 21 -2 -10 -50 -44
-66 -25 -12 -37 -13 -57 -4 -14 7 -26 16 -26 21 0 5 -5 6 -10 3 -6 -3 -13 1
-16 9 -3 9 -10 14 -14 11 -4 -3 -11 2 -14 11 -3 8 -10 12 -16 9 -6 -3 -13 1
-16 9 -3 9 -10 13 -15 10 -5 -3 -9 2 -9 11 0 9 -5 13 -11 10 -6 -4 -17 2 -25
14 -9 12 -20 19 -25 16 -5 -4 -9 -1 -9 4 0 6 -6 11 -14 11 -8 0 -17 7 -20 16
-4 9 -9 14 -13 11 -3 -4 -11 -3 -17 2 -18 14 -56 20 -62 10 -3 -5 -9 -7 -14
-4 -5 3 -18 -3 -29 -14 -20 -20 -34 -64 -37 -121 -1 -19 -3 -35 -4 -35 -1 0
-3 -10 -4 -22 -2 -13 2 -23 8 -23 7 0 7 -3 -1 -8 -6 -4 -14 -38 -17 -77 -9
-106 -10 -109 -51 -128 -35 -17 -40 -17 -50 -3 -9 11 -15 12 -23 4 -8 -8 -13
-7 -18 5 -3 9 -12 17 -19 17 -6 0 -26 7 -44 16 -17 9 -37 17 -44 19 -38 10
-57 18 -57 27 0 6 -7 8 -15 4 -8 -3 -15 -1 -15 5 0 6 -4 8 -9 5 -5 -4 -11 -1
-13 6 -2 6 -24 11 -53 11 -40 0 -52 -4 -72 -27 -13 -15 -21 -32 -18 -37 4 -5
2 -9 -3 -9 -10 0 -9 -30 2 -48 4 -7 2 -12 -6 -12 -9 0 -9 -3 2 -10 13 -9 13
-10 0 -10 -12 0 -13 -2 -1 -9 7 -5 11 -15 9 -22 -3 -8 -1 -24 3 -36 5 -15 5
-23 -2 -23 -6 0 -7 -5 -2 -12 4 -7 8 -27 8 -43 1 -17 4 -36 9 -43 4 -7 2 -12
-6 -12 -8 0 -9 -3 -3 -8 18 -12 11 -66 -12 -91 -21 -23 -73 -38 -73 -21 0 5
-8 7 -17 6 -10 -2 -31 1 -48 6 -29 9 -55 14 -100 21 -11 1 -25 6 -32 10 -6 4
-18 4 -27 1 -9 -3 -16 -1 -16 5 0 6 -6 8 -13 5 -8 -3 -26 0 -40 5 -15 6 -27 7
-27 2 0 -5 -13 -14 -30 -21 -16 -7 -27 -16 -24 -21 3 -5 0 -9 -6 -9 -7 0 -10
-6 -7 -12 2 -7 0 -23 -4 -35 -4 -12 -4 -23 1 -25 8 -3 20 -46 24 -88 0 -8 8
-21 16 -28 13 -12 13 -13 0 -6 -13 7 -13 6 -1 -9 8 -10 11 -20 8 -24 -4 -3 -2
-14 4 -25 12 -23 21 -55 23 -85 0 -11 4 -19 9 -16 11 7 8 -36 -5 -60 -23 -44
-27 -45 -212 -44 -165 1 -179 0 -192 -18 -8 -10 -14 -15 -14 -9 0 5 -7 -4 -15
-20 -9 -16 -13 -41 -11 -55 9 -47 18 -71 28 -71 5 0 7 -4 3 -9 -3 -5 1 -15 8
-23 15 -15 43 -79 39 -90 -1 -5 2 -8 7 -8 5 0 20 -22 32 -50 12 -27 26 -50 31
-50 4 0 8 -5 8 -11 0 -5 -6 -7 -12 -4 -7 4 -4 -1 6 -9 12 -10 15 -16 7 -16 -8
0 -11 -6 -7 -15 3 -8 1 -15 -4 -15 -6 0 -10 -6 -10 -14 0 -16 -22 -27 -65 -33
-16 -3 -36 -9 -42 -15 -9 -7 -13 -7 -13 1 0 8 -6 9 -17 2 -10 -5 -36 -12 -58
-16 -22 -4 -44 -8 -50 -9 -5 -2 -31 -6 -57 -10 -48 -8 -88 -36 -88 -61 0 -8
-4 -15 -9 -15 -26 0 40 -139 66 -140 7 0 12 -3 12 -7 -3 -20 2 -34 11 -28 6 3
10 -1 10 -9 0 -9 5 -16 10 -16 6 0 10 -5 10 -11 0 -7 10 -21 23 -33 13 -12 22
-27 19 -34 -2 -7 0 -11 5 -10 4 2 10 -2 12 -7 3 -6 15 -21 28 -35 12 -13 19
-27 15 -30 -4 -3 -7 -11 -8 -17 -1 -7 -2 -21 -2 -32 -2 -12 -18 -24 -49 -36
-27 -10 -52 -22 -58 -26 -5 -5 -17 -9 -27 -9 -10 0 -18 -4 -18 -8 0 -5 -22
-14 -50 -22 -27 -7 -47 -17 -44 -22 3 -4 -2 -5 -10 -2 -9 3 -16 1 -16 -5 0 -6
-9 -11 -19 -11 -11 0 -23 -5 -26 -10 -4 -6 -11 -7 -17 -4 -6 4 -8 2 -5 -3 10
-15 -20 -36 -40 -29 -15 5 -15 3 2 -12 11 -10 21 -24 23 -32 2 -8 8 -16 13
-18 5 -2 9 -10 9 -18 0 -8 5 -14 10 -14 6 0 10 -7 10 -16 0 -9 6 -14 13 -11
10 4 13 -1 10 -17 -3 -13 3 -29 16 -40 12 -11 21 -25 21 -33 0 -8 5 -11 12 -7
8 5 9 2 5 -9 -4 -11 -1 -17 8 -17 8 0 15 -9 15 -20 0 -11 4 -20 9 -20 5 0 14
-14 21 -30 7 -17 16 -30 21 -30 5 0 8 -6 6 -12 -1 -7 3 -12 9 -11 24 4 9 -30
-18 -39 -31 -11 -30 -11 -33 -66 -1 -21 -5 -44 -9 -51 -5 -8 -3 -17 5 -22 10
-6 10 -9 2 -9 -9 0 -10 -7 -4 -23 5 -14 5 -30 0 -40 -7 -11 -6 -17 1 -17 7 0
7 -6 -1 -21 -6 -12 -7 -24 -2 -28 10 -7 11 -26 1 -37 -4 -4 -3 -12 2 -19 5 -6
11 -33 11 -59 1 -26 6 -49 10 -52 5 -2 6 -11 2 -19 -3 -9 -1 -21 4 -28 4 -6 8
-24 7 -39 0 -16 3 -28 8 -28 5 0 6 -6 2 -12 -6 -10 -4 -10 8 0 9 7 19 9 22 4
3 -5 18 -7 35 -4 24 3 29 1 26 -14 -2 -11 -4 -25 -4 -33 -1 -7 -7 -11 -15 -8
-8 3 -17 3 -20 0 -11 -11 -121 -9 -128 2 -5 7 -8 7 -8 0 0 -6 -12 -10 -27 -9
-16 1 -28 3 -28 4 0 2 -18 4 -40 5 -22 2 -40 4 -40 5 0 1 -49 9 -82 12 -7 1
-13 5 -13 9 0 5 -7 6 -15 3 -8 -4 -15 -1 -15 7 0 7 -3 10 -6 7 -3 -4 -17 0
-32 7 -26 14 -37 41 -23 60 5 5 7 20 6 33 -1 12 1 22 5 22 4 0 6 11 5 25 -2
14 0 27 3 29 6 3 7 201 2 201 -2 0 -4 13 -11 93 -2 17 -6 32 -9 32 -4 0 -7 7
-7 15 0 24 -26 95 -34 95 -5 0 -6 6 -3 14 3 7 -2 21 -11 30 -9 9 -13 16 -10
16 4 0 -10 24 -31 53 -57 78 -74 97 -102 116 -12 8 -19 18 -16 23 3 4 -2 5
-10 2 -8 -3 -19 3 -26 15 -6 12 -17 21 -25 21 -8 0 -15 3 -15 8 0 4 -25 18
-55 32 -30 14 -55 29 -55 33 0 5 -5 5 -10 2 -6 -4 -17 -1 -25 5 -8 7 -15 9
-15 6 0 -4 -7 0 -16 9 -13 12 -19 13 -24 5 -6 -9 -10 -9 -16 1 -5 8 -20 15
-34 16 -52 4 -70 8 -70 14 0 3 -15 6 -32 7 -18 1 -44 4 -58 7 -56 12 -230 16
-230 6 0 -6 5 -11 10 -11 6 0 10 -5 10 -12 0 -6 11 -26 25 -43 13 -18 21 -35
18 -39 -4 -3 1 -6 11 -6 10 0 14 -5 10 -12 -4 -6 1 -17 11 -25 11 -7 16 -13
12 -13 -4 0 1 -10 13 -22 11 -12 20 -27 20 -34 0 -6 7 -15 16 -18 9 -4 14 -13
10 -22 -3 -8 -2 -13 3 -9 5 3 15 -8 23 -25 7 -16 16 -30 20 -30 5 0 8 -7 8
-15 0 -8 5 -15 10 -15 6 0 10 -7 10 -15 0 -8 5 -15 10 -15 6 0 10 -5 10 -10 0
-9 35 -65 50 -80 3 -3 14 -22 25 -42 11 -21 23 -38 28 -38 4 0 6 -4 3 -9 -4
-5 -2 -11 2 -13 12 -4 72 -95 72 -107 0 -6 5 -11 11 -11 5 0 8 -4 5 -9 -3 -5
1 -11 9 -15 8 -3 15 -12 15 -21 0 -16 -12 -20 -24 -8 -3 4 -15 8 -25 10 -10 1
-31 8 -47 14 -16 7 -32 12 -36 11 -5 -1 -8 3 -8 9 0 5 -4 8 -8 5 -11 -6 -143
60 -154 76 -4 7 -8 9 -8 3 0 -7 -3 -7 -8 0 -4 6 -20 18 -37 27 -16 10 -29 22
-27 28 1 7 -2 9 -7 5 -6 -3 -26 10 -46 29 -19 19 -35 33 -35 31 0 -2 -20 15
-45 38 -25 24 -45 46 -45 51 0 12 -27 36 -34 29 -3 -4 -6 1 -6 10 0 10 -3 17
-8 17 -4 0 -18 18 -32 40 -23 37 -41 48 -42 25 0 -6 -8 -21 -18 -35 -9 -14
-16 -33 -15 -42 2 -10 -1 -18 -7 -18 -6 0 -8 -7 -4 -15 3 -8 1 -15 -4 -15 -6
0 -9 -3 -9 -7 1 -5 0 -11 -1 -15 -1 -5 -4 -12 -5 -18 -1 -5 -3 -11 -4 -12 -5
-7 -13 -89 -15 -148 -3 -91 33 -240 57 -240 5 0 6 -4 3 -9 -3 -5 1 -14 9 -21
8 -7 15 -17 15 -22 0 -5 11 -19 25 -32 13 -13 21 -27 17 -31 -4 -5 -2 -5 4 -2
6 3 17 -2 26 -11 24 -27 58 -53 58 -44 0 4 4 2 8 -5 4 -7 27 -20 50 -31 23
-10 40 -21 37 -24 -3 -2 1 -5 7 -5 21 -1 43 -8 49 -15 3 -5 17 -9 32 -10 15
-1 27 -6 27 -10 0 -4 9 -8 21 -8 11 0 30 -5 41 -11 16 -8 19 -8 13 1 -4 7 4 4
19 -5 20 -14 26 -14 26 -4 0 9 3 10 8 3 4 -6 14 -12 22 -12 8 -1 33 -4 55 -7
22 -4 59 -7 82 -8 24 -1 43 -4 43 -7 0 -3 30 -5 68 -5 37 0 73 -4 80 -9 7 -5
12 -4 12 3 0 13 14 3 55 -39 14 -14 25 -21 25 -17 0 5 12 -1 26 -12 14 -11 47
-27 75 -36 27 -9 49 -20 49 -24 0 -4 8 -8 18 -9 21 -2 43 -7 62 -15 28 -10
125 -31 143 -30 9 0 17 -3 17 -7 0 -5 12 -7 28 -5 15 2 32 -1 39 -6 7 -7 14
-6 18 1 3 6 11 8 16 5 5 -4 17 -8 26 -9 10 -2 34 -6 55 -10 l36 -7 -15 -30
c-8 -16 -16 -38 -18 -47 -2 -9 -4 -19 -5 -22 -1 -3 -2 -8 -1 -12 0 -5 -4 -8
-11 -8 -6 0 -9 -3 -5 -6 3 -4 -1 -23 -9 -43 -8 -20 -15 -38 -15 -41 1 -3 -7
-27 -16 -55 -10 -27 -18 -53 -19 -57 -1 -5 -3 -11 -4 -15 -2 -5 -3 -24 -4 -43
-1 -28 6 -42 35 -70 44 -44 79 -72 79 -63 0 3 10 -2 22 -13 13 -12 18 -13 13
-4 -6 11 -3 10 11 -2 11 -10 35 -21 52 -24 18 -4 32 -10 32 -14 0 -4 20 -13
45 -20 25 -7 48 -17 51 -22 3 -4 10 -6 15 -3 5 4 9 1 9 -5 0 -6 4 -9 10 -5 5
3 18 1 30 -5 48 -24 57 -28 88 -35 18 -3 30 -10 28 -14 -3 -4 4 -8 15 -9 10
-1 26 -2 34 -3 20 -3 19 -28 -5 -83 -10 -25 -17 -46 -13 -46 3 0 0 -7 -7 -15
-11 -14 -7 -19 13 -16 4 0 7 -3 7 -8 0 -5 9 -7 20 -4 11 3 20 1 20 -4 0 -5 10
-10 23 -11 36 -4 51 -7 63 -14 6 -4 30 -9 52 -10 23 -2 42 -6 42 -9 0 -3 15
-5 33 -4 17 1 43 -5 56 -13 13 -8 21 -9 17 -4 -7 12 39 10 51 -1 3 -4 12 -2
20 4 10 9 13 8 13 -1 0 -10 3 -10 14 -1 11 9 16 9 21 1 4 -7 18 -10 31 -7 14
2 24 -1 24 -7 0 -7 3 -7 8 -1 4 6 14 10 22 10 8 0 18 -4 22 -10 5 -7 8 -7 8 0
0 8 108 12 118 5 1 -2 10 -3 20 -5 17 -2 31 -7 92 -33 19 -8 38 -16 43 -17 4
-2 10 -4 15 -5 4 -1 10 -2 15 -1 4 0 7 -3 7 -8 0 -5 20 -15 45 -22 25 -7 45
-18 45 -23 0 -5 3 -7 6 -3 4 3 19 0 35 -9 16 -8 29 -12 29 -8 0 4 7 1 15 -6
30 -25 16 26 -15 53 -16 15 -30 32 -30 37 0 6 -5 10 -11 10 -6 0 -29 19 -51
41 -31 31 -36 40 -20 34 14 -4 22 -2 22 5 0 6 5 8 10 5 6 -3 10 1 10 9 0 9 -4
16 -10 16 -5 0 -10 7 -10 15 0 8 -6 15 -12 15 -10 0 -10 2 0 9 11 6 10 11 -3
25 -9 9 -14 16 -10 16 3 0 -2 14 -10 31 -9 17 -14 33 -11 36 3 3 -2 12 -10 20
-8 8 -12 18 -9 23 3 5 1 11 -5 15 -6 4 -8 11 -5 16 4 5 2 9 -3 9 -6 0 -8 10
-4 22 4 16 2 19 -8 13 -10 -6 -12 -4 -7 8 3 9 2 19 -4 22 -5 4 -7 11 -3 16 4
6 11 6 20 -1 27 -23 127 -80 139 -80 8 0 15 -5 17 -12 3 -9 6 -9 11 -1 9 15
-168 193 -191 193 -8 0 -13 3 -9 6 3 4 -3 14 -14 23 -12 9 -22 29 -22 44 -1
15 -6 27 -11 27 -4 0 -6 7 -3 15 4 8 2 17 -3 20 -6 4 -10 19 -10 35 0 16 -5
32 -11 36 -8 4 -7 9 2 15 8 5 9 9 3 9 -10 0 -14 12 -15 52 0 10 -5 18 -11 18
-7 0 -6 5 1 14 8 10 9 16 1 21 -6 3 -8 11 -5 16 4 5 2 9 -2 9 -5 0 -9 9 -9 20
0 13 8 21 21 22 25 2 48 5 55 8 3 1 19 3 35 5 17 1 59 6 95 10 36 4 73 8 83 9
9 0 17 3 17 7 0 4 8 6 18 5 9 -2 29 1 45 5 70 20 122 20 145 1 12 -11 19 -22
15 -25 -3 -4 2 -16 11 -26 10 -11 15 -25 10 -32 -4 -7 -3 -10 3 -6 10 7 28
-20 25 -36 -1 -4 3 -7 9 -7 5 0 8 -4 5 -9 -3 -5 1 -12 10 -15 8 -3 12 -10 9
-16 -3 -5 -1 -10 4 -10 6 0 11 -9 11 -20 0 -11 5 -20 10 -20 6 0 10 -7 10 -15
0 -8 4 -15 8 -15 4 0 9 -10 9 -22 1 -13 7 -24 13 -26 5 -2 10 -11 10 -20 0 -9
10 -27 23 -40 12 -14 16 -22 8 -17 -16 9 -8 -7 18 -39 12 -15 13 -17 2 -11 -8
5 -5 -6 8 -23 12 -18 19 -36 16 -42 -3 -5 1 -10 9 -10 10 0 13 -6 10 -15 -4
-8 -1 -15 5 -15 6 0 8 -6 5 -14 -3 -8 0 -17 7 -22 7 -4 15 -2 17 4 2 7 10 12
18 12 8 0 14 5 14 11 0 5 5 7 10 4 6 -3 10 -1 10 5 0 6 5 8 10 5 5 -3 10 -2
10 2 0 5 18 19 40 33 22 14 40 28 40 33 0 4 5 5 10 2 6 -3 10 -2 10 4 0 6 15
18 33 27 17 9 39 25 48 35 9 11 22 19 28 19 7 0 10 4 7 9 -3 5 6 12 19 15 14
4 24 10 21 15 -3 4 6 13 19 19 14 7 25 16 25 22 0 6 5 8 10 5 6 -3 10 2 10 11
0 10 3 14 7 11 3 -4 13 2 21 14 8 11 20 18 28 15 8 -3 13 -2 13 2 -3 21 3 32
17 32 8 0 13 4 10 8 -3 5 6 15 19 22 14 7 25 19 25 27 0 7 4 13 10 13 13 0 59
48 52 54 -3 3 2 6 11 6 9 0 17 6 17 13 0 8 10 19 23 24 21 11 21 11 2 19 -11
4 -26 14 -33 21 -8 7 -18 11 -23 8 -5 -4 -9 -1 -9 4 0 6 -7 11 -15 11 -8 0
-15 5 -15 11 0 5 -4 7 -10 4 -5 -3 -10 -1 -10 5 0 6 -4 8 -10 5 -5 -3 -10 -1
-10 4 0 6 -7 11 -15 11 -9 0 -18 7 -21 15 -4 8 -10 13 -14 10 -7 -4 -20 5 -67
45 -7 6 -13 8 -13 4 0 -3 -6 -1 -13 5 -8 6 -18 7 -22 3 -5 -4 -5 -2 -2 4 4 7
0 15 -9 18 -15 6 -12 20 4 22 4 0 15 4 25 7 17 7 36 13 49 16 4 1 23 8 42 16
18 8 36 11 40 8 3 -4 6 -1 6 6 0 7 5 9 10 6 6 -3 10 0 10 7 0 9 3 9 10 -2 5
-8 10 -10 10 -5 0 6 26 19 58 30 31 10 62 21 67 24 6 3 15 6 22 7 7 1 26 9 44
18 17 9 35 13 40 10 5 -3 9 -1 9 4 0 8 11 13 63 27 4 2 12 3 18 4 5 0 7 6 3
13 -4 6 -3 8 3 5 6 -4 28 1 49 10 22 9 42 16 47 15 4 -1 7 3 7 8 0 6 9 10 19
10 11 0 26 6 33 13 7 6 24 13 38 15 13 1 27 7 30 13 4 5 17 11 28 12 12 1 22
4 22 8 0 7 50 23 63 21 4 -1 7 2 7 7 0 5 10 13 23 17 12 3 68 28 125 55 57 27
107 49 113 49 5 0 9 5 9 10 0 6 8 10 19 10 10 0 24 7 31 15 7 8 18 15 26 15
15 0 86 40 96 55 4 5 8 6 8 2 0 -10 152 72 162 87 4 6 8 7 8 2 0 -5 8 -2 18 7
10 10 22 14 25 10 4 -3 7 -1 7 6 0 7 4 10 9 7 5 -3 14 1 21 9 7 8 24 21 39 28
36 18 75 41 81 47 3 3 22 14 43 25 20 11 37 23 37 27 0 5 5 8 10 8 6 0 46 25
90 55 44 30 80 53 80 51 0 -3 11 6 25 20 14 14 30 22 35 19 6 -3 10 0 10 7 0
7 14 19 30 26 17 8 28 18 24 23 -3 5 1 9 9 9 8 0 23 8 35 18 28 23 56 44 83
62 12 8 35 27 50 42 16 15 29 25 29 22 0 -3 10 5 23 18 13 13 46 41 72 63 27
22 66 56 86 76 20 20 44 39 54 42 9 4 14 11 11 15 -3 5 5 14 17 21 12 7 33 27
47 46 14 18 27 32 29 30 6 -6 29 20 24 28 -2 4 4 7 13 7 10 0 14 3 11 6 -3 4
5 15 18 26 14 11 23 24 19 29 -3 5 -1 8 4 7 6 -2 11 2 12 7 1 6 11 15 23 22
12 7 18 12 14 13 -5 0 4 13 20 30 36 38 46 50 67 83 10 15 22 24 27 21 5 -3 9
-2 8 3 -3 18 2 30 21 51 12 12 18 22 15 22 -4 0 1 7 9 16 9 8 13 20 10 26 -4
6 -2 8 4 4 9 -6 28 29 24 46 -1 3 6 5 16 3 9 -1 16 -8 14 -14 -1 -6 3 -11 9
-11 8 0 7 -5 -2 -16 -8 -10 -9 -18 -3 -22 6 -4 11 -20 11 -37 1 -16 4 -94 6
-172 3 -78 8 -147 13 -154 4 -8 3 -9 -4 -5 -7 4 -12 3 -12 -3 0 -5 5 -13 10
-16 6 -4 7 -12 3 -18 -12 -20 -11 -291 1 -299 8 -5 7 -8 -1 -8 -8 0 -9 -10 -3
-32 5 -18 11 -55 14 -83 6 -62 10 -83 19 -91 7 -7 9 6 10 54 1 12 4 22 7 22 3
0 6 10 7 23 5 99 34 270 48 279 6 5 5 8 -4 8 -10 0 -11 3 -3 13 6 7 11 22 11
32 0 11 3 34 6 50 4 17 7 40 7 53 0 12 3 22 7 22 5 0 8 15 14 103 1 15 5 27 9
27 3 0 5 8 3 18 -1 9 0 22 4 27 3 6 7 24 8 40 2 34 11 100 13 100 2 0 5 18 13
87 3 20 8 41 11 47 4 6 1 11 -6 11 -8 0 -9 3 -3 8 6 4 10 19 10 35 -1 15 2 31
5 36 7 11 72 -8 65 -19 -4 -6 -1 -10 4 -10 6 0 11 -9 11 -19 0 -11 5 -23 11
-27 6 -3 9 -15 6 -25 -3 -11 -2 -19 2 -19 4 0 8 -6 8 -12 0 -7 4 -35 8 -63 4
-27 8 -65 8 -82 1 -18 4 -33 7 -33 3 0 6 -17 7 -37 6 -137 12 -215 17 -220 2
-3 1 -16 -4 -29 -5 -13 -6 -24 -2 -24 10 0 9 -212 -1 -227 -5 -7 -5 -13 0 -13
4 0 8 -35 8 -78 0 -42 5 -80 10 -84 6 -5 5 -8 -3 -8 -9 0 -10 -5 -4 -17 5 -10
9 -37 8 -61 -1 -23 2 -42 6 -42 4 0 7 -8 6 -17 0 -10 3 -31 7 -48 4 -16 8 -37
9 -45 1 -9 5 -21 10 -28 4 -6 4 -16 1 -22 -3 -5 -1 -10 4 -10 6 0 11 -7 11
-15 0 -8 5 -15 10 -15 9 0 14 14 11 33 0 4 2 7 7 7 4 0 8 10 9 23 6 74 11 132
13 132 2 0 6 43 12 107 2 21 6 38 10 38 4 0 8 10 8 23 -1 23 6 72 10 72 1 0 3
9 4 20 4 23 14 80 20 111 2 12 7 37 10 55 3 19 8 45 11 59 3 14 7 35 9 48 3
12 8 27 12 34 5 7 3 8 -6 3 -10 -6 -11 -4 -4 6 4 8 10 23 12 34 2 11 5 27 7
35 2 8 4 28 4 43 1 16 5 26 9 23 4 -3 7 9 6 26 -1 17 2 42 6 57 8 24 19 87 24
136 1 11 4 25 7 30 3 6 5 17 4 25 -1 8 2 25 7 38 5 15 4 22 -5 22 -8 0 -8 3 2
9 8 5 11 16 8 25 -4 9 -2 16 2 16 5 0 9 17 9 38 -1 20 2 44 6 54 4 9 8 44 9
77 1 34 5 61 8 61 8 0 4 38 -4 46 -4 4 -7 19 -7 33 0 48 -71 103 -122 95 -10
-1 -18 1 -18 6 0 4 -10 6 -22 6 -13 -1 -28 2 -34 6 -7 5 -16 8 -20 7 -11 -3
-86 12 -98 19 -5 3 -23 7 -40 8 -47 6 -65 9 -72 16 -3 4 -12 4 -19 2 -19 -8
-29 14 -15 31 7 8 10 15 7 15 -3 0 5 25 18 55 14 31 24 61 22 68 -1 6 3 11 8
10 6 -1 11 6 12 15 1 15 8 50 17 87 2 6 6 17 10 26 4 9 8 27 10 40 2 13 6 31
9 39 7 20 16 59 22 106 6 42 23 83 41 99 7 6 24 33 39 60 15 28 30 52 34 55 6
5 104 199 107 213 1 4 3 9 4 12 1 3 3 8 4 13 1 4 7 17 14 30 7 12 9 22 5 22
-4 0 -2 5 5 12 7 7 12 21 12 33 0 12 4 25 9 30 8 9 20 57 23 93 1 6 5 12 9 12
4 0 5 9 2 20 -3 11 0 27 7 35 7 8 8 15 3 15 -11 0 -11 29 0 47 4 7 5 26 2 42
-4 21 -1 31 7 31 8 0 9 3 3 8 -5 4 -11 30 -12 57 0 28 -4 68 -8 90 -4 22 -8
45 -9 52 -1 7 -5 16 -9 19 -4 4 -7 16 -7 26 0 10 -4 18 -10 18 -5 0 -7 6 -4
14 3 8 0 17 -5 21 -6 3 -9 11 -6 16 4 5 2 9 -2 9 -5 0 -15 16 -22 35 -7 19
-17 35 -22 35 -6 0 -7 5 -4 10 3 6 2 10 -3 10 -6 0 -13 11 -16 25 -4 14 -11
23 -16 20 -5 -3 -11 3 -15 14 -3 11 -21 32 -40 47 -19 15 -35 34 -35 41 0 7
-4 13 -10 13 -9 0 -36 19 -66 48 -18 18 -57 25 -47 9z m-5195 -4799 c17 -16
33 -26 37 -23 4 2 14 -5 21 -16 8 -10 22 -19 31 -19 19 0 27 -16 23 -45 -2
-11 -6 -36 -8 -55 -3 -19 -8 -45 -11 -58 l-6 -23 -42 33 c-46 36 -111 98 -102
98 3 0 -4 9 -15 20 -16 16 -18 25 -11 39 6 10 7 21 4 25 -3 3 -1 6 6 6 7 0 10
4 6 9 -3 5 -1 12 5 16 6 4 8 11 4 16 -12 20 29 3 58 -23z"/>
</g>
</svg>
